{"title":"Highway (2014) - Patakha Guddi Song (Official) - A.R Rahman - Al","uid":9446664,"size":38006913,"categoryP":"video","categoryS":"music_videos","magnet":"?xt=urn:btih:31275d463e7c139822a192a95de29c75c08c0b03&amp;dn=Highway+%282014%29+-+Patakha+Guddi+Song+%28Official%29+-+A.R+Rahman+-+Al&amp;tr=udp%3A%2F%2Ftracker.openbittorrent.com%3A80&amp;tr=udp%3A%2F%2Fopen.demonii.com%3A1337&amp;tr=udp%3A%2F%2Ftracker.coppersurfer.tk%3A6969&amp;tr=udp%3A%2F%2Fexodus.desync.com%3A6969","seeders":0,"leechers":1,"uploader":"ashish.p","files":1,"time":1389104417,"description":"Presenting Patakha Guddi song from Highway in astonishing voice of Nooran Sisters (Jyoti &amp; Sultana), the music is composed by A.R Rahman while lyrics are penned by Irshad Kamil.\n\nSong: Pataka Guddi\nSinger: Nooran Sisters\nMusic: A.R Rahman\nLyrics: Irshad Kamil\nMovie: Highway\nDirected By: Imtiaz Ali\nStarring: Alia Bhatt, Randeep Hooda and Others\nMusic Label: T-Series\n\nThe film releases in cinemas on 21st February 2014\n\n\nGeneral\n\nComplete name : Highway (2014) - Patakha Guddi Song (Official) - A.R Rahman - Alia Bhatt, Randeep Hooda HD 720p -AshishRocks- { DAKU RG }\nFormat :\tMPEG-4\nFormat profile : Base Media / Version 2\nCodec ID : mp42\nFile size :\t36.2 MiB\nDuration :\t2mn 0s\nOverall bit rate mode : Variable\nOverall bit rate : 2 533 Kbps\nEncoded date : UTC 2014-01-06 07:31:05\nTagged date :\tUTC 2014-01-06 07:31:05\n\nVideo\n\nID :\t1\nFormat :\tAVC\nFormat/Info : Advanced Video Codec\nFormat profile : &lt;a class=&quot;__cf_email__&quot; href=&quot;/cdn-cgi/l/email-protection&quot; data-cfemail=&quot;2e664749466e621d001f&quot;&gt;[email&amp;#160;protected]&lt;/a&gt;&lt;script cf-hash='f9e31' type=&quot;text/javascript&quot;&gt;\n/* &lt;![CDATA[ */!function(){try{var t=&quot;currentScript&quot;in document?document.currentScript:function(){for(var t=document.getElementsByTagName(&quot;script&quot;),e=t.length;e--;)if(t[e].getAttribute(&quot;cf-hash&quot;))return t[e]}();if(t&amp;&amp;t.previousSibling){var e,r,n,i,c=t.previousSibling,a=c.getAttribute(&quot;data-cfemail&quot;);if(a){for(e=&quot;&quot;,r=parseInt(a.substr(0,2),16),n=2;a.length-n;n+=2)i=parseInt(a.substr(n,2),16)^r,e+=String.fromCharCode(i);e=document.createTextNode(e),c.parentNode.replaceChild(e,c)}}}catch(u){}}();/* ]]&gt; */&lt;/script&gt;\nFormat settings, CABAC :\tYes\nFormat settings, ReFrames : 1 frame\nCodec ID : avc1\nCodec ID/Info : Advanced Video Coding\nDuration :\t2mn 0s\nBit rate : 2 338 Kbps\nMaximum bit rate : 6 212 Kbps\nWidth : 1 280 pixels\nHeight : 720 pixels\nDisplay aspect ratio : 16:9\nFrame rate mode : Constant\nFrame rate : 25.000 fps\nColor space : YUV\nChroma subsampling : 4:2:0\nBit depth : 8 bits\nScan type : Progressive\nBits/(Pixel*Frame) :\t0.101\nStream size : 33.5 MiB (92%)\nTagged date :\tUTC 2014-01-06 07:31:06\n\nAudio\n\nID :\t2\nFormat :\tAAC\nFormat/Info : Advanced Audio Codec\nFormat profile : LC\nCodec ID : 40\nDuration : 2mn 0s\nBit rate mode :\tVariable\nBit rate : 192 Kbps\nMaximum bit rate : 205 Kbps\nChannel(s) : 2 channels\nChannel positions :\tFront: L R\nSampling rate : 44.1 KHz\nCompression mode : Lossy\nStream size : 2.75 MiB (8%)\nEncoded date : UTC 2014-01-06 07:31:05\nTagged date : UTC 2014-01-06 07:31:06","torrent":{"xt":"urn:btih:31275d463e7c139822a192a95de29c75c08c0b03","amp;dn":"Highway+%282014%29+-+Patakha+Guddi+Song+%28Official%29+-+A.R+Rahman+-+Al","amp;tr":["udp%3A%2F%2Ftracker.openbittorrent.com%3A80","udp%3A%2F%2Fopen.demonii.com%3A1337","udp%3A%2F%2Ftracker.coppersurfer.tk%3A6969","udp%3A%2F%2Fexodus.desync.com%3A6969"],"infoHash":"31275d463e7c139822a192a95de29c75c08c0b03","infoHashBuffer":{"type":"Buffer","data":[49,39,93,70,62,124,19,152,34,161,146,169,93,226,156,117,192,140,11,3]},"announce":[],"urlList":[]}}